# AST/ASF file generated using VICON BodyLanguage
# -----------------------------------------------
:version 1.10
:name VICON
:units
  mass 1.0
  length 0.45
  angle deg
:documentation
   .ast/.asf automatically generated from VICON data using
   VICON BodyBuilder and BodyLanguage model FoxedUp or BRILLIANT.MOD
:root
   order TX TY TZ RX RY RZ
   axis XYZ
   position 0 0 0  
   orientation 0 0 0 
:bonedata
  begin
     id 1 
     name lhipjoint
     direction 0.567725 -0.736092 0.368589 
     length 2.42353 
     axis 0 0 0  XYZ
  end
  begin
     id 2 
     name lfemur
     direction 0.34202 -0.939693 0  
     length 7.24894  
     axis 0 0 20  XYZ
    dof rx ry rz
    limits (-160.0 20.0)
           (-70.0 70.0)
           (-60.0 70.0)
  end
  begin
     id 3 
     name ltibia
     direction 0.34202 -0.939693 0   
     length 7.6997   
     axis 0 0 20   XYZ
    dof rx
    limits (-10.0 170.0)
  end
  begin
     id 4 
     name lfoot
     direction 0.100767 -0.276854 0.955614   
     length 2.37556   
     axis -90 7.62852e-016 20   XYZ
    dof rx rz
    limits (-45.0 90.0)
           (-70.0 20.0)
  end
  begin
     id 5 
     name ltoes
     direction 1.53592e-011 -4.21894e-011 1   
     length 1.18363   
     axis -90 7.62852e-016 20   XYZ
    dof rx
    limits (-90.0 20.0)
  end
  begin
     id 6 
     name rhipjoint
     direction -0.556459 -0.742938 0.372017   
     length 2.4012  
     axis 0 0 0  XYZ 
  end
  begin
     id 7 
     name rfemur
     direction -0.34202 -0.939693 0   
     length 7.5119   
     axis 0 0 -20   XYZ
    dof rx ry rz
    limits (-160.0 20.0)
           (-70.0 70.0)
           (-70.0 60.0)
  end
  begin
     id 8 
     name rtibia
     direction -0.34202 -0.939693 0   
     length 7.50155   
     axis 0 0 -20   XYZ
    dof rx
    limits (-10.0 170.0)
 end
 begin
     id 9 
     name rfoot
     direction -0.118427 -0.325376 0.938139   
     length 2.32487  
     axis -90 -7.62852e-016 -20   XYZ
    dof rx rz
    limits (-45.0 90.0)
           (-20.0 70.0)
  end
  begin
     id 10 
     name rtoes
     direction -1.53525e-011 -4.21868e-011 1   
     length 1.15233   
     axis -90 -7.62852e-016 -20   XYZ
    dof rx
    limits (-90.0 20.0)
  end
  begin
     id 11 
     name lowerback
     direction 0.0287568 0.999577 -0.00434502   
     length 2.15243   
     axis 0 0 0   XYZ
    dof rx ry rz
    limits (-20.0 45.0)
           (-30.0 30.0)
           (-30.0 30.0)
  end
  begin
     id 12 
     name upperback
     direction 0.0294009 0.99956 0.00404628   
     length 2.15427   
     axis 0 0 0   XYZ
    dof rx ry rz
    limits (-20.0 45.0)
           (-30.0 30.0)
           (-30.0 30.0)
  end
  begin
     id 13 
     name thorax
     direction 0.0151014 0.999868 0.0059419   
     length 2.14898   
     axis 0 0 0   XYZ
    dof rx ry rz
    limits (-20.0 45.0)
           (-30.0 30.0)
           (-30.0 30.0)
  end
  begin
     id 14 
     name lowerneck
     direction -0.0249197 0.989906 0.139515   
     length 1.6861   
     axis 0 0 0   XYZ
    dof rx ry rz
    limits (-20.0 45.0)
           (-30.0 30.0)
           (-30.0 30.0)
  end
  begin
     id 15 
     name upperneck
     direction 0.0438463 0.988795 -0.142693   
     length 1.71276   
     axis 0 0 0   XYZ
    dof rx ry rz
    limits (-20.0 45.0)
           (-30.0 30.0)
           (-30.0 30.0)
  end
  begin
     id 16
     name head
     direction 0.0148499 0.997845 -0.0639186  
     length 1.7209  
     axis 0 0 0   XYZ
    dof rx ry rz
    limits (-20.0 45.0)
           (-30.0 30.0)
           (-30.0 30.0)
  end
  begin
     id 17 
     name lclavicle
     direction 0.940298 0.323464 -0.105876  
     length 3.9048  
     axis 0 0 0   XYZ
    dof ry rz
    limits (-20.0 10.0)
           (0.0 20.0)
  end
  begin
     id 18 
     name lhumerus
     direction 1 -4.48954e-011 -4.9675e-028   
     length 4.6851   
     axis 180 -30 -90   XYZ
    dof rx ry rz
    limits (-60.0 90.0)
           (-90.0 90.0)
           (-90.0 90.0)
  end
  begin
     id 19
     name lradius
     direction 1 -4.48992e-011 -1.03359e-026   
     length 3.39626   
     axis 180 -30 -90   XYZ
    dof rx
    limits (-10.0 170.0)
  end
  begin
     id 20
     name lwrist
     direction 1 -4.48906e-011 -1.67336e-026   
     length 1.69813   
     axis 9.90442e-015 90 90   XYZ
    dof ry
    limits (-180.0 0.0)
 end
  begin
     id 21 
     name lhand
     direction 1 -4.49006e-011 -3.34673e-026   
     length 0.486078   
     axis 2.1355e-014 90 90   XYZ
    dof rx rz
    limits (-90.0 90.0)
           (-45.0 45.0)
  end
  begin
     id 22 
     name lfingers
     direction 1 -4.48992e-011 -6.69345e-026   
     length 0.391889   
     axis 4.27099e-014 90 90   XYZ
    dof rx
    limits (0.0 90.0)
  end
  begin
     id 23
     name lthumb
     direction 0.707107 -6.34926e-011 0.707107   
     length 0.562676   
     axis -90 45 2.85299e-015   XYZ
    dof rx rz
    limits (-45.0 45.0)
           (-45.0 45.0)
  end
  begin
     id 24 
     name rclavicle
     direction -0.882459 0.414895 -0.221648   
     length 3.44646  
     axis 0 0 0   XYZ 
    dof ry rz
    limits (-10.0 20.0)
           (-20.0 0.0)
  end
  begin
     id 25 
     name rhumerus
     direction -1 -4.48962e-011 -2.37984e-027  
     length 5.55576   
     axis 180 30 90   XYZ
    dof rx ry rz
    limits (-90.0 60.0)
           (-90.0 90.0)
           (-90.0 90.0)
  end
  begin
     id 26 
     name rradius
     direction -1 -4.48982e-011 -6.86791e-027   
     length 3.32774   
     axis 180 30 90   XYZ
    dof rx
    limits (-10.0 170.0)
  end
  begin
     id 27 
     name rwrist
     direction -1 -4.48961e-011 -1.67336e-026   
     length 1.66387   
     axis 9.90442e-015 -90 -90   XYZ
    dof ry
    limits (-180.0 0.0)
  end
  begin
     id 28
     name rhand
     direction -1 -4.4897e-011 -3.34673e-026   
     length 0.507628   
     axis 2.1355e-014 -90 -90   XYZ
    dof rx rz
    limits (-90.0 90.0)
           (-45.0 45.0)
  end
  begin
     id 29
     name rfingers
     direction -1 -4.48854e-011 -6.69345e-026   
     length 0.409263   
     axis 4.27099e-014 -90 -90   XYZ
    dof rx
    limits (0.0 90.0)
  end
  begin
     id 30
     name rthumb
     direction -0.707107 -6.34913e-011 0.707107   
     length 0.587622   
     axis -90 -45 -2.85299e-015   XYZ
    dof rx rz
    limits (-45.0 45.0)
           (-45.0 45.0)
  end
:hierarchy
  begin
    root lhipjoint rhipjoint lowerback
    lhipjoint lfemur
    lfemur ltibia
    ltibia lfoot
    lfoot ltoes
    rhipjoint rfemur
    rfemur rtibia
    rtibia rfoot
    rfoot rtoes
    lowerback upperback
    upperback thorax
    thorax lowerneck lclavicle rclavicle
    lowerneck upperneck
    upperneck head
    lclavicle lhumerus
    lhumerus lradius
    lradius lwrist
    lwrist lhand lthumb
    lhand lfingers
    rclavicle rhumerus
    rhumerus rradius
    rradius rwrist
    rwrist rhand rthumb
    rhand rfingers
  end

#!OML:ASF E:\motion texture\Top Level 1\Subject 1\Session 1\male.ASF
:FULLY-SPECIFIED
:DEGREES
102
root 39.6731 17.4278 6.23916 96.8844 -81.5605 -87.2617
lowerback -1.89712 1.53738 7.08416
upperback -0.63639 1.85964 1.86009
thorax 0.573236 0.911178 -2.00272
lowerneck -16.0663 -4.48354 -8.07551
upperneck 2.71773 -5.15905 9.06664
head 3.84362 -2.22219 3.69244
rclavicle -5.09386e-015 2.127e-014
rhumerus -24.5817 -2.46237 -81.8762
rradius 46.1654
rwrist 5.5636
rhand -20.4866 -32.5374
rfingers 7.12502
rthumb 5.87005 -62.4361
lclavicle -5.09386e-015 2.127e-014
lhumerus -35.3314 18.3245 82.2508
lradius 30.4614
lwrist -27.2873
lhand -11.4348 17.9713
lfingers 7.12502
lthumb 14.6016 47.4373
rfemur -1.98688 2.48028 33.4055
rtibia 14.5319
rfoot -16.4474 -16.2673
rtoes 7.2643
lfemur -38.362 3.11093 -4.56914
ltibia 27.0875
lfoot -8.59746 4.92434
ltoes -11.8911
103
root 39.5881 17.4141 6.24428 96.2148 -81.5769 -86.4694
lowerback -1.93067 1.5727 7.02696
upperback -0.71025 1.91073 1.78704
thorax 0.520755 0.934182 -2.04494
lowerneck -16.0603 -4.5535 -8.14486
upperneck 2.69013 -5.2409 9.10466
head 3.84426 -2.26196 3.70832
rclavicle -1.66979e-014 1.64991e-014
rhumerus -24.7137 -2.44878 -82.1815
rradius 46.6194
rwrist 5.49331
rhand -20.8585 -32.8032
rfingers 7.12502
rthumb 5.51095 -62.7115
lclavicle -1.66979e-014 1.64991e-014
lhumerus -35.4413 18.2023 82.186
lradius 30.647
lwrist -27.11
lhand -11.4747 17.978
lfingers 7.12502
lthumb 14.5632 47.4468
rfemur -1.79241 2.53418 33.4
rtibia 14.5108
rfoot -16.6106 -16.4388
rtoes 6.85721
lfemur -38.4291 2.75821 -4.45662
ltibia 26.214
lfoot -8.49699 4.92317
ltoes -11.8969
104
root 39.5011 17.4001 6.25003 95.5368 -81.5967 -85.6724
lowerback -1.96607 1.60892 6.96319
upperback -0.781457 1.96275 1.71286
thorax 0.472017 0.957836 -2.08452
lowerneck -16.0558 -4.62699 -8.21745
upperneck 2.66045 -5.3275 9.15218
head 3.84542 -2.30365 3.72725
rclavicle 8.74653e-015 8.15017e-015
rhumerus -24.8522 -2.40018 -82.5112
rradius 47.048
rwrist 5.42155
rhand -21.2184 -33.0683
rfingers 7.12502
rthumb 5.1635 -62.9854
lclavicle 8.74653e-015 8.15017e-015
lhumerus -35.5388 18.0783 82.132
lradius 30.8247
lwrist -26.9429
lhand -11.5175 17.9823
lfingers 7.12502
lthumb 14.522 47.454
rfemur -1.59567 2.58696 33.3879
rtibia 14.5077
rfoot -16.7738 -16.6109
rtoes 6.41042
lfemur -38.4989 2.40274 -4.35352
ltibia 25.4166
lfoot -8.3886 4.91325
ltoes -11.8924
105
root 39.4121 17.3856 6.25642 94.8647 -81.6172 -84.8841
lowerback -2.002 1.64617 6.89651
upperback -0.850083 2.01593 1.63759
thorax 0.426334 0.982232 -2.12351
lowerneck -16.058 -4.70451 -8.29199
upperneck 2.63105 -5.41941 9.20761
head 3.84861 -2.34746 3.74838
rclavicle -4.37326e-015 8.74653e-015
rhumerus -24.9955 -2.30964 -82.8666
rradius 47.4502
rwrist 5.34695
rhand -21.5614 -33.3244
rfingers 7.12502
rthumb 4.83227 -63.2492
lclavicle -4.37326e-015 8.74653e-015
lhumerus -35.6229 17.9508 82.0893
lradius 30.9959
lwrist -26.7824
lhand -11.5645 17.9764
lfingers 7.12502
lthumb 14.4767 47.4514
rfemur -1.39931 2.63937 33.3717
rtibia 14.5256
rfoot -16.9385 -16.7818
rtoes 5.93195
lfemur -38.5743 2.05177 -4.25934
ltibia 24.7039
lfoot -8.27254 4.89433
ltoes -11.8821
106
root 39.3211 17.3709 6.26346 94.1915 -81.6383 -84.0995
lowerback -2.03793 1.68418 6.82628
upperback -0.915643 2.06995 1.56176
thorax 0.383829 1.00722 -2.161
lowerneck -16.0654 -4.78581 -8.37012
upperneck 2.60171 -5.5163 9.2742
head 3.85372 -2.39313 3.77303
rclavicle -1.69215e-014 -4.57205e-015
rhumerus -25.1445 -2.17044 -83.2469
rradius 47.8265
rwrist 5.26795
rhand -21.8832 -33.5803
rfingers 7.12502
rthumb 4.52159 -63.5121
lclavicle -1.69215e-014 -4.57205e-015
lhumerus -35.6949 17.8197 82.0584
lradius 31.1609
lwrist -26.6289
lhand -11.6166 17.9681
lfingers 7.12502
lthumb 14.4265 47.4467
rfemur -1.20204 2.68856 33.3514
rtibia 14.566
rfoot -17.103 -16.9508
rtoes 5.41614
lfemur -38.654 1.70873 -4.17653
ltibia 24.0779
lfoot -8.14881 4.86278
ltoes -11.8746
107
root 39.2281 17.3559 6.27118 93.5184 -81.6602 -83.3211
lowerback -2.07271 1.72329 6.75196
upperback -0.978725 2.1254 1.48601
thorax 0.343258 1.03306 -2.19605
lowerneck -16.0735 -4.87117 -8.45121
upperneck 2.57045 -5.61875 9.35015
head 3.85941 -2.44111 3.80054
rclavicle 1.54804e-014 8.34896e-015
rhumerus -25.3011 -1.9763 -83.6506
rradius 48.1764
rwrist 5.18526
rhand -22.1875 -33.8144
rfingers 7.12502
rthumb 4.22767 -63.7522
lclavicle 1.54804e-014 8.34896e-015
lhumerus -35.756 17.6846 82.0402
lradius 31.3187
lwrist -26.482
lhand -11.6748 17.957
lfingers 7.12502
lthumb 14.3704 47.4396
rfemur -1.004 2.73639 33.3275
rtibia 14.6323
rfoot -17.2661 -17.1194
rtoes 4.86107
lfemur -38.7372 1.37819 -4.1078
ltibia 23.5424
lfoot -8.02103 4.81224
ltoes -11.8491
